
<svg version="1.0" xmlns="http://www.w3.org/2000/svg" viewBox="0 0 512.000000 512.000000" preserveAspectRatio="xMidYMid meet">
	<title>Home page</title>
	<g transform="translate(0.000000,512.000000) scale(0.100000,-0.100000)"
fill="#000000" stroke="none">
		<path d="M3684 4867 c-3 -13 -4 -41 -2 -61 l3 -38 95 -32 c153 -51 226 -112
286 -240 75 -160 71 -294 -27 -811 -31 -161 -31 -345 -1 -449 61 -211 200
-393 386 -506 60 -37 266 -130 286 -130 5 0 11 -4 14 -9 3 -4 -36 -23 -87 -41
-218 -77 -357 -177 -466 -334 -109 -158 -152 -293 -152 -478 1 -109 27 -330
51 -418 22 -83 50 -301 50 -396 0 -153 -41 -262 -133 -354 -62 -63 -105 -88
-209 -124 l-93 -32 -3 -52 c-4 -66 2 -69 133 -53 142 16 216 36 321 86 211
101 360 274 440 510 22 66 27 101 30 200 3 128 -6 201 -55 445 -42 207 -52
279 -52 399 0 121 16 193 65 296 60 127 164 215 291 246 86 21 86 21 83 101
l-3 71 -70 22 c-102 31 -169 71 -230 137 -96 103 -136 217 -136 389 0 124 9
186 62 449 44 221 63 381 54 455 -32 264 -154 472 -358 613 -143 99 -249 137
-421 152 -148 13 -145 13 -152 -13z"/>
		<path d="M1295 4834 c-344 -54 -590 -260 -701 -589 -22 -66 -27 -101 -30 -200
-3 -128 6 -201 55 -445 42 -207 52 -279 52 -399 0 -121 -16 -193 -65 -296 -60
-127 -164 -215 -291 -246 -86 -21 -86 -21 -83 -101 l3 -71 70 -22 c102 -31
169 -71 230 -137 96 -103 136 -217 136 -389 0 -124 -9 -186 -62 -449 -44 -221
-63 -381 -54 -455 32 -264 154 -472 358 -613 147 -101 249 -137 435 -153 143
-12 144 -12 140 64 l-3 49 -95 32 c-153 51 -226 112 -286 240 -75 160 -71 294
27 811 31 161 31 345 1 449 -61 211 -200 393 -386 506 -60 37 -266 130 -286
130 -5 0 -11 4 -14 9 -3 4 36 23 87 41 218 77 357 177 466 334 109 158 152
293 152 478 -1 109 -27 330 -51 418 -22 83 -50 301 -50 396 0 153 41 262 133
354 62 63 105 88 209 124 l93 32 0 55 0 54 -50 2 c-27 1 -90 -5 -140 -13z"/>
		<path d="M2150 4628 c-361 -295 -643 -722 -727 -1103 -24 -110 -28 -341 -9
-453 32 -182 106 -324 229 -438 86 -80 202 -139 301 -154 244 -38 485 127 562
385 27 90 25 268 -4 361 -39 126 -119 226 -225 281 -44 23 -64 28 -132 28 -67
0 -90 -5 -139 -28 -32 -15 -61 -26 -63 -24 -5 6 31 105 70 189 61 133 126 216
379 489 l136 146 -140 179 c-77 98 -145 184 -151 191 -9 10 -29 -1 -87 -49z"/>
		<path d="M3095 4551 c-93 -23 -165 -63 -242 -135 -158 -147 -233 -320 -233
-541 0 -215 82 -405 231 -539 72 -65 129 -96 222 -123 382 -111 747 216 747
667 0 181 -55 341 -163 471 -148 178 -354 251 -562 200z"/>
		<path d="M3060 2798 c-170 -60 -299 -199 -351 -379 -20 -68 -17 -262 5 -334
39 -129 119 -236 218 -290 48 -27 62 -30 143 -30 78 0 97 4 145 27 30 15 56
25 58 23 13 -13 -95 -253 -151 -334 -44 -64 -150 -186 -303 -348 l-135 -142
148 -190 c81 -104 152 -190 157 -190 24 -2 289 248 390 369 173 206 303 431
370 637 46 143 66 268 66 413 0 261 -70 458 -214 604 -122 125 -229 175 -386
182 -81 4 -105 1 -160 -18z"/>
		<path d="M1853 2085 c-209 -57 -388 -262 -437 -499 -20 -98 -21 -243 -1 -338
23 -111 92 -242 174 -329 119 -128 249 -188 402 -189 229 0 422 131 539 367
146 297 59 699 -194 890 -76 57 -120 79 -193 98 -71 19 -221 18 -290 0z"/>
	</g>
</svg>
