<?xml version="1.0" encoding="utf-8"?>
<svg class="m3-icon" xmlns="http://www.w3.org/2000/svg" viewBox="0 0 512 512" xmlns:bx="https://boxy-svg.com">
  <defs>
    <bx:export>
      <bx:file format="svg" href="#object-0" path="About me.svg"/>
    </bx:export>
  </defs>
  <title>About Me</title>
  <path fill-rule="evenodd" d="M 123.288 88.805 C 189.769 14.584 266.39 -25.682 323.909 40.235 C 393.188 43.534 420.977 143.041 365.711 184.932 L 365.394 187.417 C 367.47 186.823 369.619 186.454 371.789 186.319 C 375.688 185.93 379.618 186.599 383.096 188.232 C 386.897 190.04 389.736 193.151 390.978 196.865 C 392.451 201.745 392.326 206.905 390.621 211.725 C 388.051 218.973 384.852 227.072 381.836 234.202 C 380.938 237.223 379.074 239.944 376.474 242.015 C 373.088 244.217 368.891 245.139 364.762 244.579 L 362.376 244.335 C 361.79 269.052 348.458 280.411 330.848 295.272 L 330.035 295.962 C 346.298 332.606 377.737 341.933 408.998 346.652 C 515.435 362.937 500.615 414.12 500.615 463.423 L 360.801 463.423 C 318.991 516.038 234.972 522.239 184.275 476.45 L 183.283 475.476 C 179.218 471.67 175.481 467.588 172.113 463.258 L 6.172 463.258 C 6.172 401.087 -0.313 361.107 114.683 349.87 C 149.907 346.45 185.086 337.94 199.682 294.087 C 183.735 281.594 170.673 270.229 168.152 244.417 L 166.665 244.417 C 163.128 244.412 159.656 243.586 156.574 242.015 C 151.5 239.145 147.609 234.859 145.491 229.801 C 142.837 223.987 141.306 217.803 140.988 211.521 C 140.988 209.567 140.988 205.864 140.988 202.319 C 140.988 198.774 141.26 196.215 141.53 194.505 C 141.583 193.992 141.736 193.497 141.979 193.037 C 145.539 183.998 150.99 181.066 158.286 181.272 L 153.512 178.42 C 150.898 149.187 158.51 98.459 123.375 88.847 L 123.288 88.805 Z M 259.496 357.033 C 259.475 354.896 259.933 352.778 260.848 350.805 C 261.736 348.83 263.069 347.038 264.768 345.552 C 266.433 344.066 268.391 342.865 270.532 342.014 C 274.868 340.423 279.712 340.423 284.046 342.014 C 286.154 342.876 288.077 344.074 289.72 345.552 C 291.36 347.062 292.663 348.845 293.549 350.805 C 294.423 352.786 294.834 354.905 294.765 357.033 C 294.794 359.152 294.366 361.254 293.507 363.224 C 292.595 365.181 291.282 366.965 289.634 368.476 C 288.013 369.987 286.082 371.202 283.955 372.054 C 281.836 372.88 279.551 373.298 277.247 373.279 C 272.512 373.319 267.965 371.595 264.677 368.517 C 263.015 367.017 261.696 365.227 260.802 363.263 C 259.921 361.282 259.48 359.167 259.496 357.033 Z M 269.543 440.863 L 268.911 443.107 C 268.598 444.976 268.911 447.177 271.435 447.177 C 272.619 447.063 273.736 446.627 274.633 445.916 C 276.29 444.708 277.799 443.339 279.137 441.842 C 281.143 439.753 283.023 437.562 284.765 435.287 C 286.749 432.764 288.775 429.911 290.891 426.697 C 291.122 426.369 291.6 426.263 291.973 426.454 L 299.227 431.299 C 299.501 431.578 299.501 431.999 299.227 432.276 C 296.229 437.027 292.875 441.586 289.18 445.916 C 286.117 449.483 282.633 452.733 278.776 455.603 C 269.181 462.648 251.436 467.412 240.984 458.985 C 232.471 452.065 235.804 440.823 238.688 432.316 L 248.103 407.887 C 249.675 402.836 253.507 393.513 243.599 393.513 L 233.869 393.513 C 233.432 393.491 233.082 393.178 233.058 392.781 L 235.896 383.824 C 235.981 383.505 236.3 383.289 236.663 383.297 L 288.596 381.831 C 289.041 381.808 289.429 382.12 289.449 382.522 L 289.449 382.764 L 269.677 440.947 L 269.543 440.863 Z M 266.433 313.469 C 341.953 313.469 389.155 387.366 351.396 446.482 C 313.637 505.603 219.233 505.603 181.473 446.482 C 172.869 433.016 168.339 417.739 168.329 402.186 C 168.329 353.219 212.26 313.528 266.433 313.552 L 266.433 313.469 Z" style="fill-rule: evenodd; paint-order: stroke markers; stroke-miterlimit: 5; transform-box: fill-box; transform-origin: 50% 50%;" id="object-0" transform="matrix(1, -0.00006, 0.00006, 1, 0, 0)" class="m3-icon">
    <title>About me</title>
  </path>
</svg>