<?xml version="1.0" encoding="utf-8"?>
<svg class="m3-icon" xmlns="http://www.w3.org/2000/svg" viewBox="0 0 512 512">
  <title>Articles</title>
  <path fill="currentColor" fill-rule="evenodd" d="M 351.006 460.982 C 351.006 452.411 360.286 447.055 367.707 451.343 C 371.152 453.329 373.275 457.003 373.275 460.982 L 373.275 475.467 C 373.27 480.903 371.108 486.11 367.264 489.952 C 363.443 493.83 358.223 496.007 352.779 495.999 L 77.135 495.999 C 71.691 495.999 66.479 493.822 62.647 489.952 C 58.77 486.128 56.577 480.913 56.562 475.467 L 56.562 111.484 C 56.562 106.032 58.739 100.799 62.611 96.96 L 63.498 96.152 C 67.244 92.794 72.104 90.942 77.135 90.949 L 91.235 90.949 C 99.791 90.449 105.686 99.395 101.845 107.058 C 99.848 111.034 95.677 113.44 91.235 113.18 L 78.828 113.18 L 78.828 473.771 L 351.006 473.771 L 351.006 460.982 Z M 199.103 352.188 C 191.26 352.671 185.837 344.481 189.339 337.447 C 191.168 333.775 195.012 331.557 199.103 331.806 L 297.996 331.806 C 305.839 331.325 311.266 339.515 307.764 346.55 C 305.932 350.219 302.088 352.442 297.996 352.188 L 199.103 352.188 Z M 199.103 289.737 C 191.201 289.737 186.26 281.18 190.212 274.34 C 192.047 271.163 195.437 269.205 199.103 269.205 L 333.633 269.205 C 341.491 269.205 346.402 277.715 342.472 284.517 C 340.651 287.676 337.281 289.621 333.633 289.621 L 199.103 289.737 Z M 199.103 227.251 C 191.245 227.251 186.332 218.746 190.264 211.939 C 192.088 208.777 195.455 206.832 199.103 206.832 L 373.12 206.832 C 380.979 206.832 385.889 215.342 381.96 222.147 C 380.139 225.306 376.768 227.251 373.12 227.251 L 199.103 227.251 Z M 330.087 26.691 L 434.759 136.948 C 439.644 138.257 443.043 142.681 443.043 147.737 L 443.043 407.199 C 443.043 418.525 433.873 427.713 422.546 427.734 L 146.903 427.734 C 141.467 427.749 136.25 425.585 132.418 421.723 C 128.545 417.884 126.368 412.656 126.368 407.199 L 126.368 43.219 C 126.365 37.762 128.543 32.534 132.418 28.695 L 133.304 27.886 C 137.027 24.511 141.876 22.643 146.903 22.646 L 321.342 22.646 C 324.72 22.599 327.938 24.086 330.087 26.691 Z M 420.776 161.335 L 321.342 161.335 C 315.195 161.335 310.209 156.35 310.209 150.202 L 310.209 44.912 L 148.598 44.912 L 148.598 405.506 L 420.776 405.506 L 420.776 161.335 Z M 406.02 139.066 L 332.476 61.595 L 332.476 138.953 L 406.02 139.066 Z" style=""/>
</svg>