<?xml version="1.0" encoding="utf-8"?>
<svg xmlns="http://www.w3.org/2000/svg" viewBox="0 0 512 512">
  <path d="M 316.703 197.055 L 316.703 290.817 L 290.258 290.817 L 290.258 401.406 L 218.132 401.406 L 218.132 290.817 L 191.687 290.817 L 191.687 197.055 C 191.687 189.842 198.9 182.63 206.114 182.63 L 302.279 182.63 C 309.49 182.63 316.703 189.842 316.703 197.055 Z M 254.195 170.61 C 271.024 170.61 285.448 156.185 285.448 139.356 C 285.448 122.526 271.024 108.101 254.195 108.101 C 237.367 108.101 222.942 122.526 222.942 139.356 C 222.942 156.185 237.367 170.61 254.195 170.61 Z M 484.992 254.754 C 484.992 319.666 463.356 372.557 420.08 415.831 C 374.402 461.509 319.107 485.551 254.195 485.551 C 191.687 485.551 136.392 463.915 90.714 418.235 C 45.036 372.557 23.398 319.666 23.398 254.754 C 23.398 192.246 45.036 136.951 90.714 91.273 C 136.392 45.595 189.283 23.957 254.195 23.957 C 319.107 23.957 374.402 45.595 417.676 91.273 C 463.356 134.547 484.992 189.842 484.992 254.754 Z M 444.122 254.754 C 444.122 201.863 424.889 158.589 388.827 120.122 C 350.36 84.059 307.086 64.827 254.195 64.827 C 201.304 64.827 158.03 84.059 121.967 120.122 C 83.501 158.589 64.269 204.266 64.269 254.754 C 64.269 305.241 83.501 350.919 119.564 386.982 C 155.626 423.044 201.304 442.277 254.195 442.277 C 304.683 442.277 350.36 423.044 388.827 384.578 C 424.889 350.919 444.122 307.645 444.122 254.754 Z" style="">
    <title>Creative Commons By</title>
  </path>
</svg>