<?xml version="1.0" encoding="utf-8"?>
<svg xmlns="http://www.w3.org/2000/svg" viewBox="0 0 512 512">
  <title>Creative Commons</title>
  <path d="M 180.597 215.015 C 169.186 215.015 159.925 224.255 159.925 235.687 L 159.925 277.03 C 159.925 288.442 169.186 297.702 180.597 297.702 C 193.764 297.702 201.454 295.51 205.217 294.002 C 206.995 293.299 207.966 292.7 208.297 292.493 C 216.421 285.361 228.803 285.672 236.556 293.423 C 244.473 301.319 244.432 314.798 236.515 322.695 C 234.923 324.266 233.145 325.61 231.306 326.85 C 228.66 328.608 225.146 330.571 220.577 332.39 C 211.399 336.069 198.436 339.046 180.597 339.046 C 146.342 339.046 118.58 311.264 118.58 277.03 L 118.58 235.687 C 118.58 201.433 146.342 173.671 180.597 173.671 C 198.436 173.671 211.399 176.648 220.577 180.306 C 225.146 182.126 228.66 184.09 231.306 185.847 C 233.641 187.418 235.109 188.617 236.535 190.023 C 244.514 198.001 244.535 211.294 236.556 219.295 C 228.803 227.046 216.421 227.356 208.318 220.224 C 207.966 219.996 206.995 219.397 205.217 218.695 C 201.454 217.207 193.764 215.015 180.597 215.015 Z" style="fill-rule: evenodd;">
    <title>Creative Commons</title>
  </path>
  <path d="M 304.629 235.687 C 304.629 224.255 313.889 215.015 325.3 215.015 C 338.468 215.015 346.158 217.185 349.921 218.695 C 351.698 219.397 352.669 219.996 353.021 220.224 C 361.125 227.356 373.508 227.046 381.259 219.295 C 389.197 211.355 389.114 197.856 381.176 189.959 C 379.606 188.43 377.848 187.066 376.009 185.847 C 373.363 184.09 369.848 182.126 365.28 180.306 C 356.101 176.648 343.14 173.671 325.3 173.671 C 291.046 173.671 263.284 201.433 263.284 235.687 L 263.284 277.03 C 263.284 311.264 291.046 339.046 325.3 339.046 C 343.14 339.046 356.101 336.048 365.28 332.39 C 369.848 330.571 373.363 328.608 376.009 326.85 C 377.87 325.61 379.647 324.246 381.239 322.675 C 389.218 314.694 389.238 301.403 381.259 293.423 C 373.508 285.672 361.125 285.361 353.021 292.493 C 352.669 292.7 351.698 293.299 349.921 294.002 C 346.158 295.51 338.468 297.702 325.3 297.702 C 313.889 297.702 304.629 288.442 304.629 277.03 L 304.629 235.687 Z" style="fill-rule: evenodd;">
    <title>Creative Commons</title>
  </path>
  <path fill-rule="evenodd" clip-rule="evenodd" d="M 480.34 256.359 C 480.34 381.94 378.53 483.75 252.949 483.75 C 127.367 483.75 25.557 381.94 25.557 256.359 C 25.557 130.777 127.367 28.967 252.949 28.967 C 378.53 28.967 480.34 130.777 480.34 256.359 Z M 67.046 256.359 C 67.046 359.016 150.271 442.262 252.949 442.262 C 355.626 442.262 438.852 359.016 438.852 256.359 C 438.852 153.681 355.626 70.435 252.949 70.435 C 150.271 70.435 67.046 153.681 67.046 256.359 Z" style="fill-rule: evenodd;">
    <title>Creative Commons</title>
  </path>
</svg>