<?xml version="1.0" encoding="utf-8"?>
<svg xmlns="http://www.w3.org/2000/svg" viewBox="0 0 512 512">
  <title>External link</title>
  <path fill-rule="evenodd" clip-rule="evenodd" d="M 460.768 184.864 L 345.748 301.05 L 345.748 243.17 C 273.015 228.1 215.56 244.711 171.923 300.032 C 179.499 186.254 257.219 131.346 345.745 127.712 L 345.748 68.679 L 460.768 184.864 Z" style="fill: currentcolor;"/>
  <path d="M 64.212 148.701 L 181.507 148.701 C 166.405 161.739 152.83 176.894 141.129 194.186 L 86.953 194.186 L 86.953 401.419 L 352.33 401.419 L 352.33 353.11 L 397.811 308.402 L 397.811 424.16 C 397.811 436.716 387.628 446.901 375.07 446.901 L 64.212 446.901 C 51.651 446.901 41.468 436.716 41.468 424.16 L 41.468 171.442 C 41.468 158.881 51.651 148.701 64.212 148.701 Z" style="fill: currentcolor;"/>
</svg>