<?xml version="1.0" encoding="utf-8"?>
<svg xmlns="http://www.w3.org/2000/svg" viewBox="0 0 512 512">
  <title>Github</title>
  <path d="M 255.989 39.582 C 133.434 39.582 34.042 138.954 34.042 261.525 C 34.042 359.595 97.634 442.762 185.823 472.123 C 196.923 474.178 201.003 467.298 201.003 461.432 C 201.003 456.14 200.782 438.658 200.692 420.127 C 138.939 433.554 125.921 393.928 125.921 393.928 C 115.828 368.27 101.279 361.446 101.279 361.446 C 81.142 347.658 102.811 347.961 102.811 347.961 C 125.093 349.518 136.825 370.818 136.825 370.818 C 156.634 404.75 188.764 394.927 201.421 389.266 C 203.42 374.922 209.154 365.124 215.511 359.578 C 166.21 353.983 114.386 334.944 114.386 249.892 C 114.386 225.668 123.07 205.859 137.251 190.326 C 134.941 184.724 127.339 162.165 139.39 131.599 C 139.39 131.599 158.026 125.625 200.446 154.348 C 218.141 149.441 237.122 146.963 255.973 146.887 C 274.839 146.963 293.853 149.431 311.574 154.348 C 353.936 125.645 372.556 131.599 372.556 131.599 C 384.623 162.165 377.054 184.748 374.744 190.327 C 388.973 205.859 397.583 225.668 397.583 249.892 C 397.583 335.14 345.645 353.884 296.237 359.381 C 304.2 366.262 311.311 379.772 311.311 400.465 C 311.311 430.145 311.057 454.067 311.057 461.366 C 311.057 467.273 315.055 474.178 326.31 472.016 C 414.45 442.639 477.957 359.462 477.957 261.451 C 477.957 138.897 378.586 39.505 256.005 39.505 L 255.989 39.582 Z" style=""/>
</svg>