<?xml version="1.0" encoding="utf-8"?>
<svg xmlns="http://www.w3.org/2000/svg" viewBox="0 0 512 512">
  <title>Instagram</title>
  <path fill-rule="nonzero" d="M 184.18 256.132 C 184.11 216.475 216.207 184.259 255.857 184.19 C 295.514 184.112 327.736 216.195 327.814 255.86 C 327.89 295.525 295.793 327.734 256.129 327.811 C 216.479 327.887 184.256 295.797 184.18 256.132 Z M 145.375 256.21 C 145.493 317.312 195.119 366.736 256.206 366.616 C 317.3 366.498 366.751 316.886 366.633 255.784 C 366.514 194.702 316.882 145.25 255.78 145.37 C 194.692 145.488 145.256 195.121 145.375 256.21 Z M 344.923 140.832 C 344.951 155.1 356.552 166.654 370.821 166.626 C 385.096 166.598 396.65 155.003 396.628 140.734 C 396.601 126.463 384.999 114.913 370.724 114.933 C 356.448 114.963 344.896 126.563 344.923 140.832 Z M 169.283 431.523 C 148.278 430.609 136.872 427.118 129.27 424.194 C 119.204 420.299 112.021 415.629 104.461 408.125 C 96.915 400.592 92.23 393.43 88.3 383.384 C 85.348 375.782 81.794 364.39 80.81 343.385 C 79.742 320.676 79.498 313.863 79.393 256.335 C 79.281 198.821 79.491 192.007 80.482 169.278 C 81.382 148.288 84.894 136.863 87.812 129.273 C 91.707 119.193 96.364 112.023 103.882 104.463 C 111.413 96.903 118.575 92.233 128.627 88.303 C 136.223 85.333 147.615 81.813 168.613 80.813 C 191.335 79.733 198.141 79.503 255.655 79.393 C 313.181 79.283 319.994 79.483 342.724 80.483 C 363.714 81.393 375.135 84.873 382.723 87.813 C 392.796 91.703 399.979 96.353 407.532 103.883 C 415.085 111.413 419.769 118.563 423.7 128.633 C 426.666 136.213 430.192 147.617 431.183 168.608 C 432.265 191.33 432.51 198.144 432.614 255.658 C 432.725 313.186 432.516 319.999 431.518 342.715 C 430.603 363.719 427.12 375.134 424.189 382.742 C 420.293 392.802 415.637 399.985 408.111 407.545 C 400.587 415.077 393.424 419.775 383.366 423.705 C 375.784 426.665 364.378 430.197 343.394 431.195 C 320.672 432.263 313.866 432.508 256.331 432.612 C 198.818 432.724 192.012 432.508 169.283 431.523 Z M 166.77 42.043 C 143.845 43.123 128.188 46.793 114.505 52.163 C 100.342 57.683 88.335 65.073 76.392 77.073 C 64.434 89.073 57.09 101.103 51.61 115.283 C 46.306 128.993 42.71 144.657 41.698 167.596 C 40.693 190.577 40.462 197.906 40.574 256.412 C 40.686 314.91 40.944 322.254 42.039 345.242 C 43.135 368.16 46.794 383.81 52.155 397.499 C 57.683 411.663 65.076 423.664 77.076 435.615 C 89.068 447.565 101.103 454.902 115.288 460.39 C 128.991 465.687 144.662 469.297 167.594 470.301 C 190.574 471.314 197.91 471.537 256.401 471.426 C 314.92 471.314 322.257 471.055 345.237 469.966 C 368.162 468.871 383.805 465.2 397.501 459.851 C 411.665 454.309 423.671 446.93 435.616 434.93 C 447.559 422.937 454.903 410.902 460.383 396.718 C 465.688 383.015 469.297 367.342 470.294 344.425 C 471.3 321.43 471.538 314.086 471.426 255.588 C 471.314 197.082 471.049 189.753 469.96 166.779 C 468.871 143.841 465.199 128.193 459.845 114.493 C 454.31 100.343 446.925 88.343 434.932 76.383 C 422.939 64.443 410.904 57.083 396.719 51.623 C 383.01 46.313 367.345 42.703 344.413 41.703 C 321.432 40.683 314.096 40.463 255.584 40.573 C 197.086 40.683 189.75 40.943 166.77 42.043 Z" style=""/>
</svg>