<?xml version="1.0" encoding="utf-8"?>
<svg xmlns="http://www.w3.org/2000/svg" viewBox="0 0 512 512">
  <title>License</title>
  <path d="M 372.696 313.093 L 420.177 424.112 L 360.651 423.42 L 311.731 463.11 L 268.82 358.532 C 281.226 355.518 293.504 349.248 305.902 339.523 L 307.395 338.426 L 307.368 338.389 L 308.177 337.76 L 308.141 337.706 C 309.715 336.447 311.335 335.16 312.775 334.063 C 315.77 334.252 319.008 334.368 323.047 334.18 C 328.616 333.928 334.589 333.046 341.193 330.923 C 347.003 329.052 352.392 326.758 357.34 324.024 C 362.448 321.212 367.248 317.874 371.661 314.064 L 371.626 314.02 L 372.696 313.093 Z M 250.999 25.987 C 256.945 25.825 262.262 26.752 267.201 28.452 C 271.753 30.017 275.927 32.257 280.038 34.866 C 284.212 37.457 288.143 40.795 292.344 44.393 C 296.365 47.83 300.8 51.608 305.253 54.153 L 305.542 54.324 C 307.377 55.026 312.063 55.216 316.967 55.387 C 334.05 56.016 352.482 56.7 366.318 77.237 L 367.074 78.452 C 376.978 93.673 377.716 105.071 378.427 116.226 L 378.462 117.009 C 378.688 120.444 379.084 123.673 380.163 126.867 C 381.351 130.241 383.438 134.127 387.126 139.012 C 397.121 152.218 403.291 163.796 405.828 175.032 C 408.833 188.364 406.863 200.239 400.161 212.185 C 395.385 220.678 389.006 226.147 383.384 230.96 C 381.351 232.696 380.343 232.355 379.938 233.307 L 379.525 234.216 C 378.562 237.068 378.499 240.577 378.453 244.148 C 378.319 253.324 378.157 262.832 371.716 275.544 C 367.677 283.496 362.396 290.217 355.946 295.704 C 349.612 301.155 342.209 305.213 333.807 307.921 C 325.197 310.692 318.298 310.205 311.775 309.738 C 309.284 309.567 307.511 309.135 307.215 309.261 C 302.537 311.285 297.571 315.279 292.903 319.012 L 291.822 319.822 C 262.685 343.085 236.884 341.287 209.096 319.012 C 204.435 315.279 199.461 311.293 194.774 309.333 C 194.306 309.126 190.951 309.684 190.222 309.738 C 183.691 310.205 176.791 310.692 168.19 307.921 C 159.78 305.213 152.385 301.155 146.051 295.775 C 139.638 290.324 134.366 283.577 130.281 275.544 C 123.822 262.823 123.679 253.315 123.544 244.139 C 123.489 240.171 123.418 236.295 122.132 233.307 C 121.682 232.255 120.719 232.759 118.614 230.96 C 113.001 226.156 106.605 220.696 101.828 212.185 C 95.126 200.239 93.164 188.364 96.169 175.032 C 98.697 163.787 104.868 152.218 114.862 139.012 C 118.551 134.127 120.647 130.241 121.808 126.858 L 122.033 126.229 C 122.959 123.25 123.318 120.22 123.517 117.009 L 123.598 115.785 C 124.326 104.468 125.19 92.89 135.67 77.309 C 149.497 56.709 167.938 56.016 185.032 55.387 C 190.24 55.197 195.205 54.999 196.762 54.19 C 201.206 51.608 205.632 47.83 209.671 44.375 L 210.769 43.502 C 214.556 40.291 218.127 37.286 221.897 34.902 C 225.909 32.303 230.092 30.063 234.788 28.452 C 239.727 26.752 245.016 25.825 250.999 25.987 Z M 251.008 41.784 C 258.493 41.461 264.393 44.07 270.349 47.856 C 277.905 52.651 286.416 62.115 296.915 68.125 C 311.694 76.563 339.06 64.913 353.076 85.739 C 361.254 97.874 361.631 107.4 362.243 116.801 C 362.9 126.948 364.681 136.277 375.062 150.014 C 392.254 172.746 395.834 187.878 386.982 203.648 C 380.937 214.398 368.225 220.371 365.284 227.181 C 359.022 241.665 365.95 252.586 357.376 269.471 C 351.43 281.193 342.245 288.912 330.01 292.852 C 319.701 296.172 309.355 291.368 301.098 294.841 C 286.587 300.931 275.881 315.108 264.34 318.688 C 259.887 320.065 255.443 320.749 251.008 320.722 C 246.573 320.749 242.129 320.065 237.676 318.688 C 226.125 315.108 215.428 300.931 200.918 294.841 C 192.66 291.368 182.314 296.172 171.996 292.852 C 159.771 288.912 150.585 281.193 144.639 269.471 C 136.066 252.586 142.993 241.665 136.732 227.181 C 133.791 220.371 121.07 214.398 115.033 203.648 C 106.173 187.878 109.762 172.746 126.944 150.014 C 137.325 136.277 139.107 126.948 139.763 116.801 C 140.375 107.4 140.762 97.874 148.93 85.739 C 162.946 64.913 190.321 76.563 205.092 68.125 C 215.599 62.115 224.101 52.651 231.667 47.856 C 237.622 44.07 243.523 41.461 251.008 41.784 Z M 252.735 141 L 263.98 167.331 L 292.506 169.886 C 293.765 169.99 294.698 171.101 294.584 172.36 C 294.534 172.95 294.256 173.498 293.811 173.89 L 272.238 192.727 L 278.617 220.659 C 279.012 222.375 277.403 223.877 275.718 223.361 C 275.512 223.298 275.316 223.206 275.135 223.088 L 250.621 208.434 L 226.035 223.134 C 224.947 223.781 223.543 223.43 222.895 222.342 C 222.591 221.837 222.494 221.233 222.625 220.659 L 229.012 192.727 L 207.432 173.89 C 206.477 173.058 206.38 171.61 207.215 170.66 C 207.638 170.174 208.223 169.913 208.817 169.878 L 237.262 167.331 L 248.516 140.982 C 249.011 139.813 250.351 139.272 251.521 139.768 C 252.096 140.011 252.51 140.469 252.735 141 Z M 250.621 93.34 C 300.135 93.34 340.284 133.488 340.284 183.002 C 340.284 232.525 300.135 272.665 250.621 272.665 C 201.098 272.665 160.958 232.525 160.958 183.002 C 160.958 133.488 201.098 93.34 250.621 93.34 Z M 250.621 108.481 C 291.778 108.481 325.144 141.846 325.144 183.002 C 325.144 224.168 291.778 257.525 250.621 257.525 C 209.455 257.525 176.098 224.168 176.098 183.002 C 176.098 141.846 209.455 108.481 250.621 108.481 Z M 250.324 360.646 L 200.271 486.032 L 151.35 446.35 L 91.824 447.034 L 143.749 323.529 L 144.694 324.059 C 149.642 326.767 155.029 329.069 160.806 330.923 C 167.399 333.046 173.373 333.928 178.941 334.18 C 182.936 334.368 186.156 334.252 189.134 334.072 C 190.6 335.179 192.291 336.528 193.911 337.832 L 193.946 337.859 C 212.01 352.324 230.146 360.169 249.388 360.637 L 250.324 360.646 Z" style="fill-rule: evenodd;">
    <title>License</title>
  </path>
</svg>