<?xml version="1.0" encoding="utf-8"?>
<svg xmlns="http://www.w3.org/2000/svg" viewBox="0 0 512 512">
  <title>LinkedIn</title>
  <path d="M 439.049 47.75 L 74.216 47.75 C 56.764 47.75 41.947 61.173 41.947 77.719 L 41.947 434.264 C 41.947 450.824 51.671 464.249 69.115 464.249 L 433.949 464.249 C 451.424 464.249 470.054 450.824 470.054 434.264 L 470.054 77.719 C 470.054 61.173 456.517 47.75 439.049 47.75 Z M 205.031 206.412 L 262.666 206.412 L 262.666 234.994 L 263.297 234.994 C 272.08 219.583 298.032 203.938 330.123 203.938 C 391.709 203.938 408.899 235.752 408.899 294.672 L 408.899 404.752 L 347.737 404.752 L 347.737 305.526 C 347.737 279.148 336.911 255.999 311.593 255.999 C 280.849 255.999 266.194 276.246 266.194 309.491 L 266.194 404.752 L 205.031 404.752 L 205.031 206.412 Z M 103.102 404.752 L 164.264 404.752 L 164.264 206.412 L 103.102 206.412 L 103.102 404.752 Z M 171.908 136.998 C 171.908 157.544 154.803 174.186 133.683 174.186 C 112.564 174.186 95.459 157.544 95.459 136.998 C 95.459 116.451 112.564 99.811 133.683 99.811 C 154.803 99.811 171.908 116.451 171.908 136.998 Z" style="fill-rule: evenodd;">
    <title>LinkedIn</title>
  </path>
</svg>