<?xml version="1.0" encoding="utf-8"?>
<svg xmlns="http://www.w3.org/2000/svg" viewBox="0 0 512 512">
  <title>Python</title>
  <path d="M 406.209 140.172 C 440.775 140.172 468.779 168.197 468.779 202.742 L 468.779 285.441 C 468.779 320.009 440.775 348.012 406.209 348.012 L 250 348.012 C 250 356.545 257.001 369.89 265.533 369.89 L 359.39 369.89 L 359.39 406.645 C 359.39 441.212 331.386 469.216 296.819 469.216 L 203.181 469.216 C 168.286 469.237 140.129 440.687 140.61 405.77 L 140.61 323.728 C 140.129 288.876 168.33 260.39 203.181 260.501 L 318.04 260.501 C 352.563 261.003 380.918 233.328 381.267 198.804 L 381.267 140.172 L 407.084 140.172 M 312.571 398.112 C 303.82 398.112 296.819 404.676 296.819 417.583 C 296.819 430.492 303.82 433.117 312.571 433.117 C 321.147 433.117 328.105 426.182 328.105 417.583 C 328.105 404.676 321.104 398.112 312.571 398.112 M 93.792 358.951 C 59.246 358.951 31.221 330.947 31.221 296.38 L 31.221 213.682 C 31.221 179.136 59.246 151.111 93.792 151.111 L 250 151.111 C 250 142.578 242.999 129.232 234.466 129.232 L 140.61 129.232 L 140.61 93.355 C 140.61 58.805 168.636 30.785 203.181 30.785 L 296.819 30.785 C 331.386 30.785 359.39 58.805 359.39 93.355 L 359.39 175.395 C 359.893 210.269 331.693 238.753 296.819 238.622 L 181.96 238.622 C 147.437 238.141 119.104 265.795 118.733 300.318 L 118.733 358.951 L 93.792 358.951 M 187.429 101.015 C 196.18 101.015 203.181 94.445 203.181 81.535 C 203.181 68.635 196.18 66.005 187.429 66.005 C 178.678 66.005 171.895 68.635 171.895 81.535 C 171.895 94.445 178.896 101.015 187.429 101.015 Z" style="fill-rule: evenodd; fill: currentcolor;"/>
</svg>