<?xml version="1.0" encoding="utf-8"?>
<svg xmlns="http://www.w3.org/2000/svg" viewBox="0 0 512 512">
  <title>Telegram</title>
  <path d="M 258.157 38.031 C 377.892 38.031 471.969 132.108 471.969 260.395 C 471.969 380.129 377.892 474.206 258.157 474.206 C 129.871 474.206 35.794 380.129 35.794 260.395 C 35.794 132.108 129.871 38.031 258.157 38.031 Z M 360.787 157.765 L 318.025 354.472 C 318.025 354.472 318.025 371.577 300.92 363.024 L 206.843 294.605 C 206.843 294.605 309.472 200.528 318.025 200.528 C 318.025 191.976 318.025 191.976 318.025 191.976 C 318.025 191.976 309.472 191.976 309.472 191.976 L 181.186 277.499 L 121.319 260.395 C 121.319 260.395 112.767 251.843 112.767 251.843 C 112.767 243.29 121.319 234.738 121.319 234.738 L 343.682 149.213 C 343.682 149.213 360.787 140.661 360.787 157.765 Z M 241.053 320.262 L 206.843 354.472 C 206.843 354.472 206.843 354.472 206.843 354.472 L 206.843 294.605 L 241.053 320.262 Z" style="fill: currentcolor; fill-rule: evenodd;"/>
</svg>