<?xml version="1.0" encoding="utf-8"?>
<svg xmlns="http://www.w3.org/2000/svg" viewBox="0 0 512 512">
  <title>WhatsApp</title>
  <path d="M 402.754 108.376 C 363.821 69.388 312.04 47.915 256.87 47.893 C 143.186 47.893 50.667 140.41 50.623 254.121 C 50.612 290.473 60.113 325.955 78.155 357.225 L 48.892 464.106 L 158.228 435.427 C 188.349 451.863 222.268 460.517 256.781 460.526 L 256.87 460.526 C 370.534 460.526 463.067 368.005 463.107 254.289 C 463.125 199.178 441.697 147.368 402.754 108.388 L 402.754 108.376 Z M 256.87 425.697 L 256.801 425.697 C 226.046 425.689 195.874 417.419 169.549 401.805 L 163.291 398.088 L 98.408 415.106 L 115.723 351.845 L 111.648 345.358 C 94.491 318.065 85.424 286.518 85.443 254.133 C 85.483 159.621 162.381 82.715 256.94 82.715 C 302.725 82.748 345.764 100.594 378.13 133.002 C 410.498 165.397 428.307 208.473 428.288 254.27 C 428.247 348.789 351.351 425.689 256.87 425.689 L 256.87 425.697 Z M 350.895 297.317 C 345.742 294.736 320.409 282.276 315.68 280.554 C 310.954 278.834 307.522 277.974 304.091 283.136 C 300.659 288.299 290.78 299.908 287.774 303.339 C 284.768 306.781 281.761 307.206 276.609 304.624 C 271.457 302.044 254.853 296.605 235.164 279.051 C 219.847 265.384 209.501 248.515 206.496 243.352 C 203.489 238.189 206.178 235.4 208.749 232.839 C 211.065 230.526 213.902 226.818 216.483 223.811 C 219.065 220.805 219.915 218.65 221.635 215.218 C 223.357 211.775 222.496 208.771 221.21 206.188 C 219.924 203.609 209.62 178.242 205.318 167.928 C 201.135 157.881 196.885 159.246 193.729 159.078 C 190.721 158.929 187.291 158.899 183.849 158.899 C 180.408 158.899 174.831 160.185 170.103 165.347 C 165.377 170.508 152.065 182.98 152.065 208.334 C 152.065 233.691 170.529 258.207 173.111 261.648 C 175.69 265.089 209.451 317.135 261.142 339.465 C 273.435 344.775 283.036 347.949 290.523 350.323 C 302.865 354.248 314.098 353.696 322.978 352.369 C 332.878 350.887 353.467 339.899 357.759 327.863 C 362.05 315.828 362.05 305.505 360.764 303.358 C 359.48 301.214 356.039 299.918 350.886 297.337 L 350.895 297.317 Z" style="fill-rule: evenodd; fill: currentcolor;"/>
</svg>